<mxfile host="Electron" modified="2023-08-28T12:15:30.198Z" agent="Mozilla/5.0 (Windows NT 10.0; Win64; x64) AppleWebKit/537.36 (KHTML, like Gecko) draw.io/21.3.7 Chrome/112.0.5615.204 Electron/24.5.0 Safari/537.36" etag="0oF2wV7a7ooKJ3cgcC5P" version="21.3.7" type="device">
  <diagram id="C5RBs43oDa-KdzZeNtuy" name="Page-1">
    <mxGraphModel dx="821" dy="531" grid="1" gridSize="10" guides="1" tooltips="1" connect="1" arrows="1" fold="1" page="1" pageScale="1" pageWidth="827" pageHeight="1169" math="0" shadow="0">
      <root>
        <mxCell id="WIyWlLk6GJQsqaUBKTNV-0" />
        <mxCell id="WIyWlLk6GJQsqaUBKTNV-1" parent="WIyWlLk6GJQsqaUBKTNV-0" />
        <mxCell id="-32vy3LndMPn5ti-Iiko-0" value="Erdulator" style="rounded=1;whiteSpace=wrap;html=1;" parent="WIyWlLk6GJQsqaUBKTNV-1" vertex="1">
          <mxGeometry x="344" y="10" width="140" height="50" as="geometry" />
        </mxCell>
        <mxCell id="-32vy3LndMPn5ti-Iiko-4" value="Logo" style="rounded=0;whiteSpace=wrap;html=1;" parent="WIyWlLk6GJQsqaUBKTNV-1" vertex="1">
          <mxGeometry x="180" y="280" width="63" height="30" as="geometry" />
        </mxCell>
        <mxCell id="-32vy3LndMPn5ti-Iiko-6" value="Musik" style="ellipse;whiteSpace=wrap;html=1;" parent="WIyWlLk6GJQsqaUBKTNV-1" vertex="1">
          <mxGeometry x="255" y="190" width="90" height="50" as="geometry" />
        </mxCell>
        <mxCell id="-32vy3LndMPn5ti-Iiko-7" value="Grafik" style="ellipse;whiteSpace=wrap;html=1;" parent="WIyWlLk6GJQsqaUBKTNV-1" vertex="1">
          <mxGeometry x="80" y="190" width="90" height="50" as="geometry" />
        </mxCell>
        <mxCell id="-32vy3LndMPn5ti-Iiko-8" value="Icons" style="rounded=0;whiteSpace=wrap;html=1;" parent="WIyWlLk6GJQsqaUBKTNV-1" vertex="1">
          <mxGeometry x="95" y="280" width="60" height="30" as="geometry" />
        </mxCell>
        <mxCell id="-32vy3LndMPn5ti-Iiko-9" value="Spiellogik" style="rounded=0;whiteSpace=wrap;html=1;fillColor=#f8cecc;strokeColor=#b85450;" parent="WIyWlLk6GJQsqaUBKTNV-1" vertex="1">
          <mxGeometry x="405.5" y="499" width="110" height="40" as="geometry" />
        </mxCell>
        <mxCell id="-32vy3LndMPn5ti-Iiko-12" value="Backend" style="rounded=0;whiteSpace=wrap;html=1;" parent="WIyWlLk6GJQsqaUBKTNV-1" vertex="1">
          <mxGeometry x="560" y="80" width="120" height="60" as="geometry" />
        </mxCell>
        <mxCell id="-32vy3LndMPn5ti-Iiko-13" value="MenÃ¼" style="rounded=0;whiteSpace=wrap;html=1;" parent="WIyWlLk6GJQsqaUBKTNV-1" vertex="1">
          <mxGeometry x="20" y="280" width="50" height="30" as="geometry" />
        </mxCell>
        <mxCell id="-32vy3LndMPn5ti-Iiko-14" value="Erde" style="rounded=0;whiteSpace=wrap;html=1;" parent="WIyWlLk6GJQsqaUBKTNV-1" vertex="1">
          <mxGeometry x="480" y="170" width="74" height="30" as="geometry" />
        </mxCell>
        <mxCell id="hOgS6Yp5M-0GujkyoiVl-0" value="Frontend" style="rounded=0;whiteSpace=wrap;html=1;" parent="WIyWlLk6GJQsqaUBKTNV-1" vertex="1">
          <mxGeometry x="145" y="80" width="120" height="60" as="geometry" />
        </mxCell>
        <mxCell id="hOgS6Yp5M-0GujkyoiVl-1" value="Geld" style="rounded=0;whiteSpace=wrap;html=1;" parent="WIyWlLk6GJQsqaUBKTNV-1" vertex="1">
          <mxGeometry x="370" y="220" width="74" height="30" as="geometry" />
        </mxCell>
        <mxCell id="hOgS6Yp5M-0GujkyoiVl-3" value="Events" style="rounded=0;whiteSpace=wrap;html=1;" parent="WIyWlLk6GJQsqaUBKTNV-1" vertex="1">
          <mxGeometry x="370" y="320" width="74" height="30" as="geometry" />
        </mxCell>
        <mxCell id="hOgS6Yp5M-0GujkyoiVl-5" value="Fragen" style="rounded=0;whiteSpace=wrap;html=1;" parent="WIyWlLk6GJQsqaUBKTNV-1" vertex="1">
          <mxGeometry x="480" y="380" width="80" height="30" as="geometry" />
        </mxCell>
        <mxCell id="hOgS6Yp5M-0GujkyoiVl-6" value="historische Ereignisse&lt;br&gt;Auswahl aus 4?" style="rounded=0;whiteSpace=wrap;html=1;" parent="WIyWlLk6GJQsqaUBKTNV-1" vertex="1">
          <mxGeometry x="640" y="375" width="120" height="40" as="geometry" />
        </mxCell>
        <mxCell id="hOgS6Yp5M-0GujkyoiVl-8" value="" style="endArrow=none;html=1;rounded=0;entryX=1;entryY=0.5;entryDx=0;entryDy=0;exitX=0;exitY=0.5;exitDx=0;exitDy=0;" parent="WIyWlLk6GJQsqaUBKTNV-1" source="hOgS6Yp5M-0GujkyoiVl-6" target="hOgS6Yp5M-0GujkyoiVl-5" edge="1">
          <mxGeometry width="50" height="50" relative="1" as="geometry">
            <mxPoint x="630" y="385" as="sourcePoint" />
            <mxPoint x="440" y="260" as="targetPoint" />
          </mxGeometry>
        </mxCell>
        <mxCell id="hOgS6Yp5M-0GujkyoiVl-11" value="" style="endArrow=none;html=1;rounded=0;entryX=0;entryY=0.5;entryDx=0;entryDy=0;exitX=0.5;exitY=0;exitDx=0;exitDy=0;" parent="WIyWlLk6GJQsqaUBKTNV-1" source="hOgS6Yp5M-0GujkyoiVl-0" target="-32vy3LndMPn5ti-Iiko-0" edge="1">
          <mxGeometry width="50" height="50" relative="1" as="geometry">
            <mxPoint x="390" y="310" as="sourcePoint" />
            <mxPoint x="440" y="260" as="targetPoint" />
            <Array as="points">
              <mxPoint x="205" y="35" />
            </Array>
          </mxGeometry>
        </mxCell>
        <mxCell id="hOgS6Yp5M-0GujkyoiVl-12" value="" style="endArrow=none;html=1;rounded=0;entryX=1;entryY=0.5;entryDx=0;entryDy=0;exitX=0.5;exitY=0;exitDx=0;exitDy=0;" parent="WIyWlLk6GJQsqaUBKTNV-1" source="-32vy3LndMPn5ti-Iiko-12" target="-32vy3LndMPn5ti-Iiko-0" edge="1">
          <mxGeometry width="50" height="50" relative="1" as="geometry">
            <mxPoint x="390" y="310" as="sourcePoint" />
            <mxPoint x="440" y="260" as="targetPoint" />
            <Array as="points">
              <mxPoint x="620" y="35" />
            </Array>
          </mxGeometry>
        </mxCell>
        <mxCell id="hOgS6Yp5M-0GujkyoiVl-14" value="" style="endArrow=none;html=1;rounded=0;exitX=0.5;exitY=0;exitDx=0;exitDy=0;" parent="WIyWlLk6GJQsqaUBKTNV-1" edge="1" source="-32vy3LndMPn5ti-Iiko-9">
          <mxGeometry width="50" height="50" relative="1" as="geometry">
            <mxPoint x="460" y="470" as="sourcePoint" />
            <mxPoint x="460" y="110" as="targetPoint" />
            <Array as="points">
              <mxPoint x="460" y="230" />
            </Array>
          </mxGeometry>
        </mxCell>
        <mxCell id="hOgS6Yp5M-0GujkyoiVl-15" value="" style="endArrow=none;html=1;rounded=0;entryX=0;entryY=0.5;entryDx=0;entryDy=0;" parent="WIyWlLk6GJQsqaUBKTNV-1" edge="1" target="-32vy3LndMPn5ti-Iiko-12">
          <mxGeometry width="50" height="50" relative="1" as="geometry">
            <mxPoint x="460" y="110" as="sourcePoint" />
            <mxPoint x="520" y="110" as="targetPoint" />
          </mxGeometry>
        </mxCell>
        <mxCell id="hOgS6Yp5M-0GujkyoiVl-16" value="" style="endArrow=none;html=1;rounded=0;exitX=0;exitY=0.5;exitDx=0;exitDy=0;" parent="WIyWlLk6GJQsqaUBKTNV-1" source="-32vy3LndMPn5ti-Iiko-14" edge="1">
          <mxGeometry width="50" height="50" relative="1" as="geometry">
            <mxPoint x="390" y="310" as="sourcePoint" />
            <mxPoint x="460" y="185" as="targetPoint" />
          </mxGeometry>
        </mxCell>
        <mxCell id="hOgS6Yp5M-0GujkyoiVl-20" value="" style="endArrow=none;html=1;rounded=0;entryX=0;entryY=0.5;entryDx=0;entryDy=0;" parent="WIyWlLk6GJQsqaUBKTNV-1" target="hOgS6Yp5M-0GujkyoiVl-5" edge="1">
          <mxGeometry width="50" height="50" relative="1" as="geometry">
            <mxPoint x="460" y="395" as="sourcePoint" />
            <mxPoint x="450" y="270" as="targetPoint" />
          </mxGeometry>
        </mxCell>
        <mxCell id="hOgS6Yp5M-0GujkyoiVl-21" value="" style="endArrow=none;html=1;rounded=0;entryX=0;entryY=0.5;entryDx=0;entryDy=0;exitX=0.5;exitY=0;exitDx=0;exitDy=0;" parent="WIyWlLk6GJQsqaUBKTNV-1" source="-32vy3LndMPn5ti-Iiko-7" target="hOgS6Yp5M-0GujkyoiVl-0" edge="1">
          <mxGeometry width="50" height="50" relative="1" as="geometry">
            <mxPoint x="435" y="230" as="sourcePoint" />
            <mxPoint x="485" y="180" as="targetPoint" />
            <Array as="points">
              <mxPoint x="125" y="110" />
            </Array>
          </mxGeometry>
        </mxCell>
        <mxCell id="hOgS6Yp5M-0GujkyoiVl-22" value="" style="endArrow=none;html=1;rounded=0;entryX=0.5;entryY=0;entryDx=0;entryDy=0;exitX=1;exitY=0.5;exitDx=0;exitDy=0;" parent="WIyWlLk6GJQsqaUBKTNV-1" source="hOgS6Yp5M-0GujkyoiVl-0" target="-32vy3LndMPn5ti-Iiko-6" edge="1">
          <mxGeometry width="50" height="50" relative="1" as="geometry">
            <mxPoint x="435" y="230" as="sourcePoint" />
            <mxPoint x="485" y="180" as="targetPoint" />
            <Array as="points">
              <mxPoint x="300" y="110" />
            </Array>
          </mxGeometry>
        </mxCell>
        <mxCell id="hOgS6Yp5M-0GujkyoiVl-23" value="" style="endArrow=none;html=1;rounded=0;entryX=0.5;entryY=1;entryDx=0;entryDy=0;exitX=0.5;exitY=0;exitDx=0;exitDy=0;" parent="WIyWlLk6GJQsqaUBKTNV-1" source="-32vy3LndMPn5ti-Iiko-13" target="-32vy3LndMPn5ti-Iiko-7" edge="1">
          <mxGeometry width="50" height="50" relative="1" as="geometry">
            <mxPoint x="435" y="230" as="sourcePoint" />
            <mxPoint x="485" y="180" as="targetPoint" />
          </mxGeometry>
        </mxCell>
        <mxCell id="hOgS6Yp5M-0GujkyoiVl-24" value="" style="endArrow=none;html=1;rounded=0;exitX=0.5;exitY=0;exitDx=0;exitDy=0;entryX=0.5;entryY=1;entryDx=0;entryDy=0;" parent="WIyWlLk6GJQsqaUBKTNV-1" source="-32vy3LndMPn5ti-Iiko-8" target="-32vy3LndMPn5ti-Iiko-7" edge="1">
          <mxGeometry width="50" height="50" relative="1" as="geometry">
            <mxPoint x="435" y="230" as="sourcePoint" />
            <mxPoint x="485" y="180" as="targetPoint" />
          </mxGeometry>
        </mxCell>
        <mxCell id="hOgS6Yp5M-0GujkyoiVl-25" value="" style="endArrow=none;html=1;rounded=0;entryX=0.5;entryY=1;entryDx=0;entryDy=0;exitX=0.5;exitY=0;exitDx=0;exitDy=0;" parent="WIyWlLk6GJQsqaUBKTNV-1" source="-32vy3LndMPn5ti-Iiko-4" target="-32vy3LndMPn5ti-Iiko-7" edge="1">
          <mxGeometry width="50" height="50" relative="1" as="geometry">
            <mxPoint x="435" y="230" as="sourcePoint" />
            <mxPoint x="485" y="180" as="targetPoint" />
          </mxGeometry>
        </mxCell>
        <mxCell id="eFvADaPb18l-1pj3lCzg-3" value="Leben" style="rounded=0;whiteSpace=wrap;html=1;" vertex="1" parent="WIyWlLk6GJQsqaUBKTNV-1">
          <mxGeometry x="370" y="270" width="74" height="30" as="geometry" />
        </mxCell>
        <mxCell id="eFvADaPb18l-1pj3lCzg-12" value="" style="endArrow=classic;html=1;rounded=0;" edge="1" parent="WIyWlLk6GJQsqaUBKTNV-1">
          <mxGeometry relative="1" as="geometry">
            <mxPoint x="337" y="579" as="sourcePoint" />
            <mxPoint x="567" y="579" as="targetPoint" />
          </mxGeometry>
        </mxCell>
        <mxCell id="eFvADaPb18l-1pj3lCzg-13" value="Zeitstrahl" style="edgeLabel;resizable=0;html=1;align=center;verticalAlign=middle;fontSize=13;fontStyle=1" connectable="0" vertex="1" parent="eFvADaPb18l-1pj3lCzg-12">
          <mxGeometry relative="1" as="geometry" />
        </mxCell>
        <mxCell id="eFvADaPb18l-1pj3lCzg-14" value="Industrialiserung" style="edgeLabel;resizable=0;html=1;align=left;verticalAlign=bottom;" connectable="0" vertex="1" parent="eFvADaPb18l-1pj3lCzg-12">
          <mxGeometry x="-1" relative="1" as="geometry" />
        </mxCell>
        <mxCell id="eFvADaPb18l-1pj3lCzg-15" value="Heute" style="edgeLabel;resizable=0;html=1;align=right;verticalAlign=bottom;" connectable="0" vertex="1" parent="eFvADaPb18l-1pj3lCzg-12">
          <mxGeometry x="1" relative="1" as="geometry" />
        </mxCell>
        <mxCell id="eFvADaPb18l-1pj3lCzg-19" style="edgeStyle=orthogonalEdgeStyle;rounded=0;orthogonalLoop=1;jettySize=auto;html=1;exitX=0.5;exitY=1;exitDx=0;exitDy=0;entryX=0.5;entryY=0;entryDx=0;entryDy=0;" edge="1" parent="WIyWlLk6GJQsqaUBKTNV-1" source="eFvADaPb18l-1pj3lCzg-16" target="eFvADaPb18l-1pj3lCzg-18">
          <mxGeometry relative="1" as="geometry" />
        </mxCell>
        <mxCell id="eFvADaPb18l-1pj3lCzg-16" value="auftreten von Events nach Wahrscheinlichkeit" style="rounded=0;whiteSpace=wrap;html=1;" vertex="1" parent="WIyWlLk6GJQsqaUBKTNV-1">
          <mxGeometry x="237" y="639" width="120" height="60" as="geometry" />
        </mxCell>
        <mxCell id="eFvADaPb18l-1pj3lCzg-24" style="edgeStyle=orthogonalEdgeStyle;rounded=0;orthogonalLoop=1;jettySize=auto;html=1;exitX=1;exitY=0.5;exitDx=0;exitDy=0;entryX=0;entryY=0.5;entryDx=0;entryDy=0;" edge="1" parent="WIyWlLk6GJQsqaUBKTNV-1" source="eFvADaPb18l-1pj3lCzg-18" target="eFvADaPb18l-1pj3lCzg-23">
          <mxGeometry relative="1" as="geometry" />
        </mxCell>
        <mxCell id="eFvADaPb18l-1pj3lCzg-18" value="Entscheidungen beim Event beeinflussen die Wahrscheinlichkeit von Eventauftritten" style="rounded=0;whiteSpace=wrap;html=1;" vertex="1" parent="WIyWlLk6GJQsqaUBKTNV-1">
          <mxGeometry x="77" y="739" width="120" height="80" as="geometry" />
        </mxCell>
        <mxCell id="eFvADaPb18l-1pj3lCzg-26" value="" style="edgeStyle=orthogonalEdgeStyle;rounded=0;orthogonalLoop=1;jettySize=auto;html=1;" edge="1" parent="WIyWlLk6GJQsqaUBKTNV-1" source="eFvADaPb18l-1pj3lCzg-20" target="eFvADaPb18l-1pj3lCzg-25">
          <mxGeometry relative="1" as="geometry" />
        </mxCell>
        <mxCell id="eFvADaPb18l-1pj3lCzg-20" value="Quizfragen erscheinen" style="rounded=0;whiteSpace=wrap;html=1;" vertex="1" parent="WIyWlLk6GJQsqaUBKTNV-1">
          <mxGeometry x="395.5" y="639" width="120" height="60" as="geometry" />
        </mxCell>
        <mxCell id="eFvADaPb18l-1pj3lCzg-23" value="Reaktion verbraucht Budget" style="rounded=0;whiteSpace=wrap;html=1;" vertex="1" parent="WIyWlLk6GJQsqaUBKTNV-1">
          <mxGeometry x="227" y="749" width="120" height="60" as="geometry" />
        </mxCell>
        <mxCell id="eFvADaPb18l-1pj3lCzg-27" style="edgeStyle=orthogonalEdgeStyle;rounded=0;orthogonalLoop=1;jettySize=auto;html=1;exitX=0;exitY=0.5;exitDx=0;exitDy=0;entryX=1;entryY=0.5;entryDx=0;entryDy=0;" edge="1" parent="WIyWlLk6GJQsqaUBKTNV-1" source="eFvADaPb18l-1pj3lCzg-25" target="eFvADaPb18l-1pj3lCzg-23">
          <mxGeometry relative="1" as="geometry" />
        </mxCell>
        <mxCell id="eFvADaPb18l-1pj3lCzg-25" value="richtige Beantwortung erwirtschaftet Geld" style="whiteSpace=wrap;html=1;rounded=0;" vertex="1" parent="WIyWlLk6GJQsqaUBKTNV-1">
          <mxGeometry x="395.5" y="749" width="120" height="60" as="geometry" />
        </mxCell>
        <mxCell id="eFvADaPb18l-1pj3lCzg-28" value="Verloren, wenn Grenzwerte Ã¼berschritten" style="rounded=0;whiteSpace=wrap;html=1;" vertex="1" parent="WIyWlLk6GJQsqaUBKTNV-1">
          <mxGeometry x="547" y="639" width="120" height="60" as="geometry" />
        </mxCell>
        <mxCell id="eFvADaPb18l-1pj3lCzg-32" value="" style="endArrow=none;html=1;rounded=0;entryX=0.5;entryY=0;entryDx=0;entryDy=0;" edge="1" parent="WIyWlLk6GJQsqaUBKTNV-1" target="eFvADaPb18l-1pj3lCzg-16">
          <mxGeometry width="50" height="50" relative="1" as="geometry">
            <mxPoint x="357" y="599" as="sourcePoint" />
            <mxPoint x="407" y="699" as="targetPoint" />
          </mxGeometry>
        </mxCell>
        <mxCell id="eFvADaPb18l-1pj3lCzg-34" value="" style="endArrow=none;html=1;rounded=0;" edge="1" parent="WIyWlLk6GJQsqaUBKTNV-1">
          <mxGeometry width="50" height="50" relative="1" as="geometry">
            <mxPoint x="457" y="599" as="sourcePoint" />
            <mxPoint x="457" y="639" as="targetPoint" />
          </mxGeometry>
        </mxCell>
        <mxCell id="eFvADaPb18l-1pj3lCzg-37" value="" style="endArrow=none;html=1;rounded=0;entryX=0.5;entryY=0;entryDx=0;entryDy=0;" edge="1" parent="WIyWlLk6GJQsqaUBKTNV-1" target="eFvADaPb18l-1pj3lCzg-28">
          <mxGeometry width="50" height="50" relative="1" as="geometry">
            <mxPoint x="557" y="599" as="sourcePoint" />
            <mxPoint x="617" y="629" as="targetPoint" />
          </mxGeometry>
        </mxCell>
        <mxCell id="eFvADaPb18l-1pj3lCzg-41" value="" style="endArrow=none;html=1;rounded=0;entryX=1;entryY=0.5;entryDx=0;entryDy=0;" edge="1" parent="WIyWlLk6GJQsqaUBKTNV-1" target="hOgS6Yp5M-0GujkyoiVl-1">
          <mxGeometry width="50" height="50" relative="1" as="geometry">
            <mxPoint x="460" y="235" as="sourcePoint" />
            <mxPoint x="540" y="310" as="targetPoint" />
          </mxGeometry>
        </mxCell>
        <mxCell id="eFvADaPb18l-1pj3lCzg-42" value="" style="endArrow=none;html=1;rounded=0;entryX=1;entryY=0.5;entryDx=0;entryDy=0;" edge="1" parent="WIyWlLk6GJQsqaUBKTNV-1" target="hOgS6Yp5M-0GujkyoiVl-3">
          <mxGeometry width="50" height="50" relative="1" as="geometry">
            <mxPoint x="460" y="335" as="sourcePoint" />
            <mxPoint x="530" y="300" as="targetPoint" />
          </mxGeometry>
        </mxCell>
        <mxCell id="eFvADaPb18l-1pj3lCzg-43" value="Naturkatastrophen" style="rounded=0;whiteSpace=wrap;html=1;" vertex="1" parent="WIyWlLk6GJQsqaUBKTNV-1">
          <mxGeometry x="324" y="440" width="103" height="25" as="geometry" />
        </mxCell>
        <mxCell id="eFvADaPb18l-1pj3lCzg-47" value="Krankheit" style="rounded=0;whiteSpace=wrap;html=1;" vertex="1" parent="WIyWlLk6GJQsqaUBKTNV-1">
          <mxGeometry x="357" y="362.5" width="70" height="25" as="geometry" />
        </mxCell>
        <mxCell id="eFvADaPb18l-1pj3lCzg-49" value="Versammlungen" style="rounded=0;whiteSpace=wrap;html=1;" vertex="1" parent="WIyWlLk6GJQsqaUBKTNV-1">
          <mxGeometry x="327" y="400" width="100" height="25" as="geometry" />
        </mxCell>
        <mxCell id="eFvADaPb18l-1pj3lCzg-51" value="" style="endArrow=none;html=1;rounded=0;entryX=1;entryY=1;entryDx=0;entryDy=0;dashed=1;" edge="1" parent="WIyWlLk6GJQsqaUBKTNV-1" target="hOgS6Yp5M-0GujkyoiVl-3">
          <mxGeometry width="50" height="50" relative="1" as="geometry">
            <mxPoint x="444" y="450" as="sourcePoint" />
            <mxPoint x="410" y="430" as="targetPoint" />
          </mxGeometry>
        </mxCell>
        <mxCell id="eFvADaPb18l-1pj3lCzg-52" value="" style="endArrow=none;dashed=1;html=1;rounded=0;exitX=1;exitY=0.5;exitDx=0;exitDy=0;" edge="1" parent="WIyWlLk6GJQsqaUBKTNV-1" source="eFvADaPb18l-1pj3lCzg-47">
          <mxGeometry width="50" height="50" relative="1" as="geometry">
            <mxPoint x="360" y="480" as="sourcePoint" />
            <mxPoint x="440" y="375" as="targetPoint" />
          </mxGeometry>
        </mxCell>
        <mxCell id="eFvADaPb18l-1pj3lCzg-53" value="" style="endArrow=none;dashed=1;html=1;rounded=0;exitX=1;exitY=0.5;exitDx=0;exitDy=0;" edge="1" parent="WIyWlLk6GJQsqaUBKTNV-1">
          <mxGeometry width="50" height="50" relative="1" as="geometry">
            <mxPoint x="427" y="413" as="sourcePoint" />
            <mxPoint x="440" y="413" as="targetPoint" />
          </mxGeometry>
        </mxCell>
        <mxCell id="eFvADaPb18l-1pj3lCzg-54" value="" style="endArrow=none;dashed=1;html=1;rounded=0;exitX=1;exitY=0.5;exitDx=0;exitDy=0;" edge="1" parent="WIyWlLk6GJQsqaUBKTNV-1">
          <mxGeometry width="50" height="50" relative="1" as="geometry">
            <mxPoint x="427" y="453" as="sourcePoint" />
            <mxPoint x="440" y="453" as="targetPoint" />
          </mxGeometry>
        </mxCell>
        <mxCell id="eFvADaPb18l-1pj3lCzg-55" value="" style="endArrow=none;html=1;rounded=0;entryX=1;entryY=0.5;entryDx=0;entryDy=0;" edge="1" parent="WIyWlLk6GJQsqaUBKTNV-1">
          <mxGeometry width="50" height="50" relative="1" as="geometry">
            <mxPoint x="460" y="285" as="sourcePoint" />
            <mxPoint x="444" y="285" as="targetPoint" />
          </mxGeometry>
        </mxCell>
        <mxCell id="eFvADaPb18l-1pj3lCzg-56" value="" style="endArrow=none;dashed=1;html=1;rounded=0;entryX=0;entryY=1;entryDx=0;entryDy=0;" edge="1" parent="WIyWlLk6GJQsqaUBKTNV-1" target="-32vy3LndMPn5ti-Iiko-14">
          <mxGeometry width="50" height="50" relative="1" as="geometry">
            <mxPoint x="480" y="360" as="sourcePoint" />
            <mxPoint x="580" y="250" as="targetPoint" />
          </mxGeometry>
        </mxCell>
        <mxCell id="eFvADaPb18l-1pj3lCzg-57" value="Temperatur" style="rounded=0;whiteSpace=wrap;html=1;" vertex="1" parent="WIyWlLk6GJQsqaUBKTNV-1">
          <mxGeometry x="490" y="205" width="70" height="20" as="geometry" />
        </mxCell>
        <mxCell id="eFvADaPb18l-1pj3lCzg-58" value="Treibhausgas" style="rounded=0;whiteSpace=wrap;html=1;" vertex="1" parent="WIyWlLk6GJQsqaUBKTNV-1">
          <mxGeometry x="490" y="230" width="80" height="20" as="geometry" />
        </mxCell>
        <mxCell id="eFvADaPb18l-1pj3lCzg-59" value="WeltbevÃ¶lkerung" style="rounded=0;whiteSpace=wrap;html=1;" vertex="1" parent="WIyWlLk6GJQsqaUBKTNV-1">
          <mxGeometry x="490" y="255" width="100" height="20" as="geometry" />
        </mxCell>
        <mxCell id="eFvADaPb18l-1pj3lCzg-60" value="Bewaldung" style="rounded=0;whiteSpace=wrap;html=1;" vertex="1" parent="WIyWlLk6GJQsqaUBKTNV-1">
          <mxGeometry x="490" y="280" width="70" height="20" as="geometry" />
        </mxCell>
        <mxCell id="eFvADaPb18l-1pj3lCzg-61" value="Wasserspiegel" style="rounded=0;whiteSpace=wrap;html=1;" vertex="1" parent="WIyWlLk6GJQsqaUBKTNV-1">
          <mxGeometry x="490" y="306" width="90" height="20" as="geometry" />
        </mxCell>
        <mxCell id="eFvADaPb18l-1pj3lCzg-63" value="Tierartenvielfalt" style="rounded=0;whiteSpace=wrap;html=1;" vertex="1" parent="WIyWlLk6GJQsqaUBKTNV-1">
          <mxGeometry x="490" y="330" width="90" height="20" as="geometry" />
        </mxCell>
        <mxCell id="eFvADaPb18l-1pj3lCzg-65" value="Ozonschicht" style="rounded=0;whiteSpace=wrap;html=1;" vertex="1" parent="WIyWlLk6GJQsqaUBKTNV-1">
          <mxGeometry x="490" y="355" width="90" height="20" as="geometry" />
        </mxCell>
        <mxCell id="eFvADaPb18l-1pj3lCzg-66" value="" style="endArrow=none;dashed=1;html=1;rounded=0;entryX=0;entryY=0.5;entryDx=0;entryDy=0;" edge="1" parent="WIyWlLk6GJQsqaUBKTNV-1" target="eFvADaPb18l-1pj3lCzg-57">
          <mxGeometry width="50" height="50" relative="1" as="geometry">
            <mxPoint x="480" y="215" as="sourcePoint" />
            <mxPoint x="550" y="240" as="targetPoint" />
          </mxGeometry>
        </mxCell>
        <mxCell id="eFvADaPb18l-1pj3lCzg-67" value="" style="endArrow=none;dashed=1;html=1;rounded=0;entryX=0;entryY=0.5;entryDx=0;entryDy=0;" edge="1" parent="WIyWlLk6GJQsqaUBKTNV-1">
          <mxGeometry width="50" height="50" relative="1" as="geometry">
            <mxPoint x="480" y="239" as="sourcePoint" />
            <mxPoint x="490" y="239" as="targetPoint" />
          </mxGeometry>
        </mxCell>
        <mxCell id="eFvADaPb18l-1pj3lCzg-68" value="" style="endArrow=none;dashed=1;html=1;rounded=0;entryX=0;entryY=0.5;entryDx=0;entryDy=0;" edge="1" parent="WIyWlLk6GJQsqaUBKTNV-1">
          <mxGeometry width="50" height="50" relative="1" as="geometry">
            <mxPoint x="480" y="264" as="sourcePoint" />
            <mxPoint x="490" y="264" as="targetPoint" />
          </mxGeometry>
        </mxCell>
        <mxCell id="eFvADaPb18l-1pj3lCzg-69" value="" style="endArrow=none;dashed=1;html=1;rounded=0;entryX=0;entryY=0.5;entryDx=0;entryDy=0;" edge="1" parent="WIyWlLk6GJQsqaUBKTNV-1">
          <mxGeometry width="50" height="50" relative="1" as="geometry">
            <mxPoint x="480" y="290" as="sourcePoint" />
            <mxPoint x="490" y="290" as="targetPoint" />
          </mxGeometry>
        </mxCell>
        <mxCell id="eFvADaPb18l-1pj3lCzg-70" value="" style="endArrow=none;dashed=1;html=1;rounded=0;entryX=0;entryY=0.5;entryDx=0;entryDy=0;" edge="1" parent="WIyWlLk6GJQsqaUBKTNV-1">
          <mxGeometry width="50" height="50" relative="1" as="geometry">
            <mxPoint x="480" y="315" as="sourcePoint" />
            <mxPoint x="490" y="315" as="targetPoint" />
          </mxGeometry>
        </mxCell>
        <mxCell id="eFvADaPb18l-1pj3lCzg-71" value="" style="endArrow=none;dashed=1;html=1;rounded=0;entryX=0;entryY=0.5;entryDx=0;entryDy=0;" edge="1" parent="WIyWlLk6GJQsqaUBKTNV-1">
          <mxGeometry width="50" height="50" relative="1" as="geometry">
            <mxPoint x="480" y="339" as="sourcePoint" />
            <mxPoint x="490" y="339" as="targetPoint" />
          </mxGeometry>
        </mxCell>
        <mxCell id="eFvADaPb18l-1pj3lCzg-72" value="" style="endArrow=none;dashed=1;html=1;rounded=0;entryX=0;entryY=0.5;entryDx=0;entryDy=0;" edge="1" parent="WIyWlLk6GJQsqaUBKTNV-1">
          <mxGeometry width="50" height="50" relative="1" as="geometry">
            <mxPoint x="480" y="364" as="sourcePoint" />
            <mxPoint x="490" y="364" as="targetPoint" />
          </mxGeometry>
        </mxCell>
      </root>
    </mxGraphModel>
  </diagram>
</mxfile>
